<?xml version="1.0" standalone="no"?>
<!DOCTYPE svg PUBLIC "-//W3C//DTD SVG 20010904//EN"
 "http://www.w3.org/TR/2001/REC-SVG-20010904/DTD/svg10.dtd">
<svg version="1.0" xmlns="http://www.w3.org/2000/svg"
 width="800.000000pt" height="800.000000pt" viewBox="0 0 800.000000 800.000000"
 preserveAspectRatio="xMidYMid meet">
<metadata>
Created by potrace 1.16, written by Peter Selinger 2001-2019
</metadata>
<g transform="translate(0.000000,800.000000) scale(0.100000,-0.100000)"
fill="#000000" stroke="none">
<path d="M0 5990 c0 -1212 4 -2010 9 -2010 5 0 11 4 13 8 2 5 14 5 28 2 24 -7
24 -7 -12 -23 l-38 -16 0 -1975 0 -1976 1020 0 c1003 0 1020 0 1020 19 0 11
-4 23 -10 26 -5 3 -10 15 -10 26 0 19 -32 124 -50 164 -55 122 -71 160 -84
197 -21 62 -50 128 -111 253 -92 190 -123 271 -143 376 -5 30 -18 73 -28 95
-9 21 -18 44 -18 49 -1 6 -6 37 -10 70 -5 33 -18 72 -30 88 -18 24 -21 43 -21
123 0 73 3 97 15 104 19 12 26 0 41 -77 7 -35 15 -63 18 -63 3 0 5 -27 4 -60
-1 -33 3 -60 8 -60 5 0 9 -7 9 -15 0 -19 46 -116 99 -210 22 -38 40 -78 40
-87 1 -10 6 -18 11 -18 6 0 14 -8 17 -17 7 -17 15 -29 64 -87 14 -17 32 -42
39 -56 15 -29 30 -47 99 -116 28 -29 51 -55 51 -59 0 -3 19 -27 43 -52 50 -55
52 -56 101 -113 105 -122 174 -197 317 -342 l155 -158 655 0 c533 1 657 4 672
15 15 11 23 11 45 -1 39 -20 778 -20 805 0 9 7 17 16 17 20 0 3 17 32 38 64
53 81 57 88 104 180 24 46 50 91 59 101 9 9 24 46 34 82 32 121 45 174 51 209
3 19 7 46 10 60 5 27 16 209 15 249 -2 51 -24 38 -55 -32 -26 -58 -241 -297
-267 -297 -5 0 -9 -5 -9 -11 0 -6 -12 -21 -27 -33 -16 -11 -53 -44 -83 -73
-109 -102 -134 -123 -146 -123 -7 0 -17 -6 -21 -14 -10 -18 -119 -106 -131
-106 -4 0 -19 -11 -32 -25 -13 -14 -32 -25 -42 -25 -10 0 -18 -4 -18 -8 0 -14
-103 -62 -125 -58 -10 1 -42 -6 -70 -16 -27 -10 -56 -16 -62 -13 -7 2 -13 0
-13 -5 0 -6 -7 -10 -16 -10 -22 0 -12 24 12 29 10 2 21 6 24 10 4 5 20 14 95
55 29 16 48 36 41 43 -3 3 -12 1 -19 -5 -8 -7 -17 -9 -20 -5 -12 11 -8 21 11
26 16 4 16 5 0 6 -22 1 -24 21 -3 21 9 0 15 9 15 25 0 14 5 25 11 25 23 0 97
40 103 56 4 9 9 14 13 11 3 -4 17 3 31 13 13 11 33 20 43 20 11 0 19 5 19 10
0 6 7 10 15 10 8 0 15 4 15 8 0 5 18 14 40 21 22 6 45 21 51 32 7 15 17 19 33
15 16 -4 28 3 49 29 15 19 33 34 40 32 7 -1 11 4 9 11 -1 6 2 12 7 12 5 0 11
9 14 20 5 19 1 20 -45 18 -43 -3 -53 0 -65 20 -14 20 -14 22 6 22 11 0 21 5
21 10 0 6 9 10 19 10 26 0 35 16 15 24 -14 5 -14 7 0 22 9 8 14 20 11 25 -4 5
1 9 9 9 9 0 16 7 16 16 0 10 -6 14 -14 11 -7 -3 -19 0 -25 6 -6 6 -11 7 -11 1
0 -6 -16 -10 -35 -11 -29 -1 -36 3 -41 23 -3 13 -7 24 -8 24 0 0 -16 -4 -33
-9 -28 -8 -33 -7 -39 12 -8 26 -32 55 -57 69 -16 8 -17 7 -7 -11 8 -16 8 -21
-2 -21 -24 1 -48 27 -48 54 0 16 -5 26 -15 26 -8 0 -15 5 -15 10 0 6 -13 10
-29 10 -17 0 -32 4 -36 10 -3 5 -32 14 -64 21 -55 10 -59 13 -78 55 -11 24
-16 44 -11 44 5 0 6 5 3 10 -4 6 -15 8 -24 5 -12 -4 -21 2 -29 20 -12 25 -44
36 -40 13 2 -8 -9 -13 -30 -13 -36 0 -57 -22 -41 -41 15 -19 -11 -54 -44 -61
-21 -4 -27 -10 -24 -23 7 -26 -50 -34 -59 -8 -3 12 -15 18 -34 18 -19 0 -33 7
-40 20 -14 26 -96 74 -115 66 -9 -3 -19 -15 -24 -28 -8 -21 -8 -21 -32 11 -21
28 -29 32 -64 30 -52 -3 -74 7 -68 32 4 14 0 19 -16 19 -12 0 -34 8 -48 17
-14 10 -38 16 -53 15 -15 -2 -34 3 -42 11 -22 23 -57 30 -74 16 -12 -10 -16
-9 -21 9 -6 26 -44 30 -67 7 -9 -10 -17 -11 -21 -5 -9 15 -25 2 -25 -21 0 -12
-5 -19 -12 -16 -7 2 -12 18 -12 35 2 28 -1 32 -24 32 -24 0 -24 1 -9 18 22 24
21 32 -2 32 -23 0 -47 25 -31 35 5 3 16 3 23 -2 27 -17 36 -11 30 18 -4 22 -2
29 10 29 10 0 14 -6 11 -15 -4 -8 -1 -15 5 -15 7 0 14 7 17 15 4 8 9 15 13 15
9 0 8 -66 -2 -76 -4 -4 -7 -11 -7 -16 0 -5 11 2 25 16 14 14 25 30 25 35 0 21
-24 61 -36 61 -7 0 -20 14 -28 32 -20 38 -20 38 -1 38 8 0 15 -4 15 -10 0 -15
59 -42 73 -33 7 4 22 6 35 4 12 -1 22 3 22 9 0 7 -7 10 -15 6 -8 -3 -21 4 -30
17 -14 20 -14 22 2 28 10 3 21 2 24 -4 8 -12 29 0 29 17 0 10 16 12 64 9 52
-4 64 -2 70 12 3 9 3 22 -1 28 -4 7 0 8 12 4 9 -4 24 -2 31 4 15 12 38 3 29
-12 -9 -13 5 -30 18 -22 13 8 202 7 215 -1 6 -3 17 1 25 9 18 17 37 20 37 5 0
-5 5 -10 10 -10 6 0 10 7 10 16 0 10 6 13 18 10 25 -8 142 -9 182 -2 22 5 51
1 78 -8 23 -8 42 -11 42 -7 0 5 33 8 73 7 59 -1 77 3 103 21 21 15 41 21 67
18 20 -1 34 1 31 6 -3 5 6 9 21 9 14 0 37 8 51 17 14 9 40 24 57 33 29 16 51
60 30 60 -73 2 -258 22 -267 29 -6 5 -22 12 -36 16 -14 4 -32 14 -41 21 -10 9
-50 16 -110 20 -52 3 -108 6 -126 7 -17 1 -29 5 -27 8 7 12 -25 31 -41 25 -9
-3 -13 -2 -10 4 3 6 -1 10 -9 10 -9 0 -16 -5 -16 -12 0 -12 -15 -2 -15 10 0
13 -16 32 -26 32 -14 0 -11 -27 4 -34 6 -3 1 -3 -13 0 -34 9 -90 52 -90 70 0
9 -8 14 -17 13 -10 -1 -26 1 -36 6 -10 4 -23 2 -32 -5 -12 -10 -15 -9 -15 4 0
9 -8 16 -19 16 -11 0 -21 6 -24 13 -2 6 -8 9 -12 5 -4 -4 0 -19 9 -32 20 -31
21 -42 1 -26 -8 7 -15 18 -15 26 0 20 -19 27 -35 14 -11 -9 -21 -9 -45 1 -16
8 -30 17 -30 21 0 5 -11 8 -25 8 -14 0 -25 5 -25 12 0 6 -3 9 -6 6 -3 -4 -14
2 -23 11 -20 20 -33 71 -18 71 5 0 5 6 -2 14 -15 18 5 35 48 39 18 2 36 10 41
17 4 7 12 10 18 6 6 -3 22 -1 36 5 34 16 77 4 70 -19 -5 -14 -4 -14 4 -3 6 8
19 15 29 16 10 1 37 5 60 9 23 4 48 4 55 0 13 -8 20 -10 81 -20 l37 -6 0 41 0
41 113 -3 c61 -2 120 -8 130 -12 10 -4 28 -4 40 2 12 5 38 8 57 7 19 -1 63 -2
98 -3 l62 -1 0 -49 c0 -48 0 -49 36 -56 21 -3 107 -8 193 -11 185 -5 192 -5
209 -21 7 -7 19 -13 27 -13 7 0 25 -13 38 -30 14 -16 30 -30 36 -30 6 0 11 -5
11 -11 0 -7 10 -9 25 -7 17 4 32 -2 48 -18 38 -38 72 -46 93 -23 9 10 27 19
40 19 33 0 66 18 88 47 27 36 28 128 3 151 -12 11 -16 24 -12 42 10 45 -22
110 -62 127 -25 10 -33 19 -29 30 5 12 1 14 -20 10 -21 -4 -27 0 -35 22 -6 14
-17 33 -25 42 -8 9 -14 23 -12 30 2 8 -2 13 -8 12 -6 -1 -25 11 -43 27 -18 17
-41 35 -52 40 -16 9 -19 7 -19 -15 0 -18 -5 -25 -20 -25 -11 0 -20 -5 -20 -11
0 -6 -9 -8 -21 -4 -19 6 -21 4 -16 -14 7 -26 -4 -27 -20 -2 -10 15 -10 21 0
25 8 4 6 9 -7 18 -11 7 -30 24 -42 37 -13 12 -40 29 -61 36 -34 12 -39 18 -52
66 -8 30 -17 56 -20 59 -3 3 -12 18 -20 33 -8 15 -22 27 -30 26 -42 -5 -122
15 -132 32 -5 11 -15 19 -21 19 -15 0 -37 31 -38 52 0 9 -6 21 -13 25 -8 4
-16 16 -20 26 -3 9 -13 17 -21 17 -8 0 -20 16 -27 35 -7 19 -18 35 -25 35 -6
0 -14 7 -18 15 -3 8 -17 15 -31 15 -15 0 -24 4 -21 8 3 5 -7 7 -22 4 -19 -2
-33 3 -46 17 -11 12 -24 21 -29 21 -6 0 -20 9 -31 19 -25 23 -141 71 -171 71
-25 0 -45 -18 -39 -35 5 -12 -61 -27 -118 -26 -16 0 -28 -4 -28 -9 0 -16 -69
-11 -106 6 -24 11 -34 23 -34 38 0 13 -3 26 -7 29 -12 12 -9 72 4 85 7 8 11
17 8 21 -2 5 18 23 45 42 28 19 50 37 50 41 0 4 7 5 15 2 11 -5 15 1 15 25 0
17 4 31 9 31 5 0 12 9 16 19 3 11 14 22 23 25 10 3 32 19 50 36 28 25 33 37
32 72 0 24 0 51 1 60 0 9 16 28 34 43 20 15 32 31 29 39 -4 12 -10 10 -25 -5
-11 -11 -24 -17 -29 -14 -16 10 -11 45 6 45 9 0 12 5 8 12 -5 7 -1 9 13 6 14
-4 23 2 32 23 14 32 54 48 81 32 23 -15 48 6 43 36 -2 14 0 27 4 30 13 9 33
49 33 65 0 7 7 19 15 26 8 7 15 22 15 35 0 14 9 26 25 33 26 12 33 36 15 47
-6 4 -8 15 -5 26 4 12 1 21 -8 25 -15 5 -21 60 -7 69 4 3 6 14 3 25 -3 11 -1
26 5 33 5 6 13 35 16 62 7 63 16 95 27 95 5 0 9 11 9 25 0 14 -4 25 -10 25 -5
0 -10 -5 -10 -11 0 -8 -4 -9 -13 0 -8 6 -17 7 -22 3 -4 -4 -6 0 -3 8 3 8 15
14 27 13 19 -3 20 0 11 17 -14 25 -44 42 -64 34 -9 -4 -16 -1 -16 6 0 7 -7 10
-16 6 -17 -6 -36 9 -47 37 -3 9 -17 21 -30 26 -32 12 -118 2 -139 -17 -12 -10
-18 -11 -18 -3 0 7 -4 10 -9 7 -9 -6 -44 28 -37 35 2 2 -9 5 -26 5 -20 1 -37
10 -52 29 -17 21 -33 29 -62 31 -21 1 -57 12 -78 23 -21 11 -43 18 -48 15 -16
-10 -91 -6 -97 5 -4 6 -35 17 -70 25 -35 8 -67 19 -70 25 -4 5 -41 9 -84 8
-63 -2 -81 1 -91 15 -8 11 -21 14 -39 11 -15 -3 -33 0 -41 6 -7 6 -21 9 -29 5
-9 -3 -38 1 -65 10 -27 9 -65 17 -85 18 -30 1 -35 4 -26 15 15 18 -2 17 -27
-2 -10 -8 -26 -15 -35 -15 -9 0 -19 -9 -22 -21 -3 -12 -10 -18 -15 -15 -5 3
-43 7 -85 8 -71 3 -77 1 -101 -25 -25 -27 -46 -35 -46 -17 0 5 -7 7 -15 4 -11
-5 -15 1 -15 20 0 26 25 37 32 15 2 -7 10 -10 17 -8 9 3 6 14 -14 37 -14 17
-24 37 -20 44 4 7 -1 4 -9 -6 -11 -14 -13 -22 -5 -27 8 -5 8 -9 -1 -14 -6 -4
-14 -4 -17 -1 -3 3 -12 1 -20 -5 -10 -9 -18 -8 -31 4 -22 20 -26 57 -6 57 8 0
14 6 14 13 0 6 9 23 20 37 24 31 25 43 2 36 -11 -4 -22 2 -30 14 -10 17 -10
20 5 20 9 0 13 3 10 7 -4 3 1 12 11 19 24 19 37 17 21 -2 -12 -15 -11 -16 9
-10 19 7 22 4 22 -23 0 -41 19 -49 26 -12 5 22 12 31 25 31 13 0 28 17 46 54
21 43 29 52 37 42 14 -17 63 -29 70 -17 3 4 2 11 -2 15 -8 9 -13 66 -6 85 3
11 8 10 24 -4 16 -15 22 -16 35 -5 12 10 19 10 27 2 16 -16 28 -15 28 3 0 8 6
15 14 15 7 0 16 9 19 20 3 13 10 18 21 14 8 -3 23 1 31 10 16 15 29 15 87 0
10 -3 21 3 28 16 15 28 9 33 -25 20 -16 -6 -32 -7 -37 -2 -11 11 0 42 16 43 6
0 19 2 28 4 10 2 22 -4 27 -13 5 -9 23 -17 40 -18 34 -2 38 4 19 25 -10 11
-10 13 0 7 7 -5 12 -1 12 11 0 10 7 27 15 37 21 28 19 36 -10 36 -19 0 -23 4
-19 18 5 16 5 16 -6 0 -14 -22 -30 -23 -30 -3 0 8 -4 15 -10 15 -5 0 -10 -4
-10 -10 0 -20 -24 -10 -52 22 -15 17 -28 37 -28 44 0 6 -7 14 -14 17 -11 4
-13 1 -10 -11 4 -11 -1 -8 -14 7 -13 16 -21 20 -26 12 -4 -6 -12 -11 -18 -11
-6 0 -6 6 2 15 7 9 20 15 29 13 23 -4 41 10 41 33 0 11 7 19 16 19 12 0 14 7
9 30 -8 34 4 39 23 10 14 -23 35 -18 25 5 -3 9 1 15 10 15 8 0 17 -5 19 -12 6
-18 28 1 28 25 0 14 -3 18 -8 10 -4 -7 -17 -10 -30 -6 -12 3 -19 9 -17 14 3 4
-2 12 -11 17 -9 5 -14 15 -10 21 4 6 11 9 16 6 4 -3 15 6 23 18 15 23 14 24
-14 24 -17 0 -29 -6 -29 -14 0 -7 -6 -13 -13 -13 -17 0 -38 -36 -31 -55 3 -8
1 -15 -5 -15 -6 0 -11 5 -11 11 0 7 -14 10 -35 7 -41 -5 -48 15 -12 33 12 6
23 13 25 14 2 2 -4 19 -12 38 -12 30 -12 38 -1 47 8 6 11 18 8 26 -10 27 22
14 55 -22 25 -27 37 -33 45 -25 8 8 8 11 -1 11 -22 0 -12 20 14 30 22 9 24 13
14 25 -8 9 -9 15 -2 15 6 0 14 9 17 20 6 19 26 29 24 13 -4 -23 3 -31 21 -26
22 6 26 -8 9 -38 -7 -15 -7 -24 1 -34 7 -8 7 -15 1 -19 -5 -3 -12 0 -15 6 -3
7 -4 0 -3 -16 3 -38 20 -43 37 -11 7 14 18 25 23 25 5 0 4 -7 -3 -15 -7 -9
-10 -25 -6 -41 5 -20 4 -25 -6 -21 -23 8 -19 -31 5 -48 11 -8 18 -18 14 -21
-4 -4 -13 -1 -21 5 -10 8 -16 9 -21 1 -3 -5 -1 -10 5 -10 6 0 8 -10 4 -25 -6
-23 -4 -25 25 -22 39 5 47 13 32 31 -19 23 -4 56 25 56 13 0 34 10 46 22 20
20 21 23 5 26 -30 6 -18 22 17 22 25 0 39 -7 50 -22 16 -22 16 -22 16 10 0 20
-4 31 -10 27 -5 -3 -10 1 -10 9 0 19 -47 33 -61 19 -7 -7 -2 -9 15 -6 15 3 26
1 26 -6 0 -6 -16 -11 -35 -11 -28 0 -35 4 -35 19 0 21 -26 36 -35 21 -8 -13
-25 -13 -25 0 0 6 7 10 15 10 8 0 15 7 15 15 0 8 7 15 15 15 9 0 12 -6 9 -15
-8 -19 -5 -19 42 1 22 9 33 19 27 21 -7 3 -13 13 -13 24 0 11 -9 21 -24 25
-13 3 -34 16 -47 30 -12 13 -25 21 -29 19 -12 -8 -58 20 -79 47 -24 30 -38 78
-22 78 6 0 11 -8 11 -17 0 -11 3 -14 8 -7 12 17 44 25 57 14 10 -8 15 -6 20 9
3 12 13 21 21 21 8 0 14 9 14 20 0 11 -7 20 -15 20 -8 0 -15 5 -15 10 0 6 7
10 15 10 14 0 19 11 16 38 -1 6 5 12 14 12 9 0 18 6 21 14 6 15 80 15 124 1
12 -4 25 1 36 13 9 11 24 17 34 15 9 -3 34 4 55 16 29 15 41 17 55 8 18 -10
18 -12 -1 -28 -11 -10 -16 -20 -10 -23 5 -4 13 -1 16 5 4 6 18 8 30 5 13 -3
27 -1 30 5 4 6 13 8 21 5 9 -3 18 2 22 15 7 17 18 20 87 23 44 2 86 -1 93 -6
8 -7 12 -7 12 1 0 6 9 11 19 11 11 0 21 5 23 12 3 8 9 8 22 1 14 -7 34 -6 70
3 28 8 79 15 114 16 50 1 65 6 73 20 5 10 19 18 30 18 12 0 17 -4 14 -11 -10
-15 67 -7 83 9 13 12 23 14 97 17 46 2 204 58 218 77 7 11 10 10 14 0 4 -10 7
-10 17 2 9 12 21 13 56 6 24 -4 60 -6 79 -2 26 4 37 1 48 -14 11 -15 15 -16
22 -5 5 8 11 9 15 3 3 -6 16 -8 28 -4 13 3 19 1 15 -5 -7 -11 23 -23 56 -23
22 0 49 24 39 35 -4 4 4 4 18 -1 14 -4 34 -8 45 -8 11 -1 26 -5 33 -9 7 -5 21
-5 32 -2 14 5 20 2 20 -9 0 -9 6 -16 14 -16 7 0 19 -7 26 -15 8 -10 26 -15 47
-13 23 1 38 -3 44 -14 10 -19 82 -19 117 0 12 7 22 10 22 6 0 -4 9 1 21 12 17
16 22 16 29 4 23 -36 5 -50 -60 -50 -21 0 -42 -5 -46 -11 -4 -7 5 -10 27 -8
23 2 33 -1 32 -9 -4 -19 35 -14 57 8 11 11 17 26 14 35 -4 10 0 15 15 15 12 0
21 -5 21 -11 0 -8 4 -9 13 0 8 6 17 8 20 4 4 -3 7 -1 7 5 0 7 10 12 23 11 12
0 16 -3 10 -6 -7 -2 -13 -11 -13 -19 0 -10 7 -13 24 -8 14 3 29 0 39 -10 8 -9
20 -16 26 -16 5 0 22 -5 36 -12 20 -9 26 -17 22 -36 -4 -20 -1 -23 22 -22 45
3 51 1 62 -24 6 -13 20 -27 31 -29 15 -4 17 -11 12 -31 -4 -19 -2 -28 10 -32
9 -3 16 -10 16 -15 0 -6 9 -19 19 -30 11 -12 27 -51 37 -87 9 -37 23 -72 31
-79 8 -6 13 -20 11 -30 -3 -21 21 -83 32 -83 4 0 5 -19 3 -43 -4 -36 -1 -46
21 -68 18 -18 28 -40 31 -70 2 -24 8 -57 13 -74 6 -21 4 -45 -7 -78 -11 -36
-12 -52 -4 -66 14 -22 21 -141 9 -159 -10 -17 2 -104 14 -97 4 3 11 -3 14 -12
4 -9 1 -20 -6 -25 -10 -6 -9 -8 4 -8 9 0 18 6 21 13 2 6 8 9 12 4 5 -4 1 -13
-9 -20 -17 -12 -17 -15 3 -51 12 -20 18 -42 15 -48 -4 -6 -1 -9 7 -6 18 6 69
-29 69 -47 0 -8 8 -19 18 -24 14 -9 14 -12 3 -20 -17 -11 -9 -38 33 -98 17
-27 38 -68 46 -92 13 -42 13 -44 -9 -62 -14 -12 -27 -36 -32 -62 -4 -23 -11
-51 -15 -61 -5 -12 -4 -17 3 -13 6 4 7 -9 3 -37 -7 -47 -6 -63 5 -116 4 -19 9
-55 9 -80 1 -25 7 -55 14 -67 7 -12 12 -31 12 -42 0 -12 4 -21 9 -21 15 0 21
43 8 59 -10 12 -9 13 2 6 11 -6 13 -4 8 8 -4 10 -1 17 5 17 6 0 9 3 5 6 -3 3
5 26 19 51 13 25 24 54 24 65 0 10 7 30 16 44 9 13 18 50 20 82 1 31 12 84 23
117 11 33 21 72 21 87 0 17 7 29 19 33 11 3 22 12 25 20 3 8 12 15 19 15 8 0
20 7 27 15 9 11 17 12 30 5 10 -6 28 -10 39 -10 10 0 21 -5 23 -11 5 -15 163
-25 172 -11 4 6 13 9 21 5 23 -8 18 25 -5 37 -11 6 -26 8 -32 4 -7 -4 -8 -3
-4 5 4 6 0 14 -8 17 -9 3 -13 11 -9 17 4 6 1 7 -7 2 -18 -11 -32 16 -17 34 15
17 16 73 2 83 -6 5 -3 8 8 8 22 0 22 28 0 52 -13 14 -14 21 -5 30 7 7 12 22
12 34 0 30 26 79 33 62 3 -7 6 -3 6 10 1 34 21 60 43 54 12 -3 18 1 18 11 0 9
8 22 18 29 9 7 22 22 28 33 6 11 21 21 33 23 12 2 19 7 17 11 -3 4 14 7 38 7
24 -1 41 -5 38 -10 -3 -5 2 -7 11 -3 12 4 17 -1 19 -21 2 -20 9 -27 26 -28 22
-1 51 -29 52 -49 0 -6 10 -15 22 -20 12 -6 26 -19 32 -30 6 -11 15 -23 20 -26
4 -4 3 -10 -4 -14 -8 -5 -5 -14 10 -30 17 -18 21 -33 18 -67 -1 -24 1 -43 7
-44 6 0 18 -4 27 -8 9 -4 22 -5 28 -1 5 3 10 0 10 -7 0 -13 49 -39 81 -43 29
-4 36 -14 31 -45 -3 -22 0 -30 10 -30 21 0 52 36 39 45 -7 4 0 15 16 29 33 27
73 42 73 27 0 -6 -11 -13 -25 -17 -37 -9 -20 -24 24 -20 21 2 44 0 51 -4 8 -5
19 -2 29 7 10 11 16 12 19 4 2 -6 10 -11 17 -11 7 0 16 -6 19 -12 3 -7 3 -3 1
8 -5 19 -2 21 21 16 22 -4 26 -2 21 12 -4 11 -1 16 11 16 34 0 63 -13 58 -25
-6 -17 29 -8 45 11 9 11 8 19 -6 34 -22 24 -14 38 8 15 9 -8 20 -15 26 -15 5
0 15 -8 20 -17 9 -16 10 -16 11 3 0 12 7 27 15 34 13 11 15 9 15 -13 0 -20 8
-28 40 -41 49 -20 51 -20 44 -1 -3 8 -14 17 -25 20 -10 4 -19 11 -19 16 0 6 9
7 21 4 16 -5 20 -3 17 10 -2 13 5 18 26 21 60 6 56 -21 56 416 0 222 -4 398
-8 391 -4 -6 -29 -14 -56 -18 -35 -6 -47 -5 -42 4 8 13 -6 15 -20 2 -15 -14
-72 -21 -76 -10 -2 6 -27 13 -56 15 -59 4 -92 18 -92 38 0 8 -7 17 -16 20 -11
4 -14 13 -11 27 7 28 -1 49 -18 43 -9 -4 -15 12 -21 58 -5 35 -8 70 -9 80 0 9
-3 19 -6 22 -3 3 -4 43 -2 88 1 46 -1 92 -6 103 -5 11 -12 32 -15 47 -3 15
-15 30 -26 33 -11 3 -20 12 -20 20 0 14 -52 28 -60 15 -8 -12 -54 -24 -46 -12
4 7 -5 7 -29 1 -19 -6 -40 -7 -46 -3 -6 4 -14 1 -18 -5 -4 -6 -21 -13 -38 -14
-17 -1 -31 -6 -30 -10 1 -4 -27 -10 -63 -12 -98 -7 -109 -10 -125 -31 -14 -19
-14 -19 -15 2 0 21 -22 48 -31 39 -3 -2 -41 -6 -84 -9 -44 -2 -81 -9 -83 -15
-2 -7 -14 -5 -33 5 -25 12 -40 13 -82 5 -29 -6 -62 -9 -74 -7 -27 6 -36 -7
-37 -49 -1 -26 -5 -30 -30 -30 -19 -1 -30 -6 -32 -17 -2 -18 46 -61 82 -72 11
-3 28 -22 37 -41 15 -31 15 -35 0 -43 -9 -5 -13 -15 -9 -21 4 -6 11 -9 16 -6
11 7 50 -30 50 -47 0 -21 41 -57 58 -51 10 4 13 2 8 -5 -4 -6 2 -20 14 -32 11
-11 20 -23 20 -27 0 -4 10 -18 23 -31 l22 -24 -22 6 c-12 4 -24 2 -28 -4 -3
-5 0 -10 9 -10 8 0 21 -3 30 -6 11 -4 16 0 16 14 0 11 -4 22 -10 24 -5 2 -12
19 -15 38 -5 31 -4 32 6 13 20 -37 38 -36 45 4 4 23 13 37 25 40 11 3 19 14
19 27 0 15 -3 17 -9 8 -7 -11 -10 -10 -15 3 -9 25 -8 28 16 22 28 -8 62 10 50
26 -6 8 -2 18 10 30 18 17 19 16 29 -10 8 -22 12 -25 20 -13 8 11 12 12 16 3
2 -7 14 -13 25 -13 16 0 19 -5 15 -21 -5 -17 -2 -20 14 -16 18 5 19 1 15 -36
-3 -26 -13 -49 -26 -59 -17 -14 -19 -21 -11 -37 12 -22 15 -58 4 -47 -5 4 -8
13 -8 19 0 7 -8 13 -18 15 -15 3 -18 0 -12 -17 5 -15 2 -21 -9 -21 -9 0 -16
-7 -16 -15 0 -8 9 -15 20 -15 13 0 18 -5 14 -15 -5 -11 -16 -13 -45 -9 -21 4
-39 4 -39 1 0 -3 13 -19 30 -37 34 -36 39 -60 12 -60 -10 0 -19 -7 -19 -15 0
-8 5 -15 11 -15 6 0 5 -4 -2 -8 -10 -7 -10 -15 -3 -35 10 -26 9 -27 -14 -21
-27 7 -36 -12 -10 -22 20 -8 16 -68 -6 -82 -13 -8 -20 -8 -29 3 -6 8 -18 11
-26 8 -8 -3 -14 0 -14 7 0 6 -4 9 -10 5 -14 -8 -1 -35 15 -29 19 8 29 -14 14
-32 -10 -13 -10 -17 2 -25 10 -7 6 -9 -17 -7 -19 1 -38 -4 -48 -15 -22 -21
-43 -23 -26 -1 11 13 10 16 -8 21 -23 6 -28 18 -12 28 18 11 11 26 -8 16 -19
-10 -46 5 -48 27 -3 37 -5 41 -18 36 -8 -3 -16 -18 -18 -32 -2 -18 -9 -27 -21
-27 -10 0 -21 -6 -25 -12 -6 -10 -13 -9 -31 3 -16 12 -20 19 -12 27 6 6 11 19
11 29 0 10 7 18 15 18 8 0 16 6 17 13 0 6 2 19 2 27 1 8 7 14 14 12 7 -1 12 2
12 7 0 5 7 17 16 25 14 15 14 16 0 16 -9 0 -16 5 -16 10 0 6 -4 10 -10 10 -5
0 -7 -8 -3 -17 5 -15 3 -16 -7 -6 -12 11 -9 18 15 43 28 30 27 34 -7 31 -21
-3 -23 10 -6 27 8 8 5 14 -16 22 -31 12 -96 61 -96 73 0 15 -83 97 -98 97 -10
0 -12 8 -7 33 4 17 4 29 0 25 -4 -3 -15 2 -25 12 -9 9 -24 20 -31 23 -20 7 0
25 31 29 14 2 35 10 48 17 20 11 27 10 43 -5 19 -17 19 -16 13 17 -4 19 -8 36
-10 38 -2 2 1 11 8 18 18 22 -9 34 -60 27 -27 -4 -47 -2 -57 6 -8 6 -18 9 -23
6 -5 -3 -19 5 -32 19 l-22 24 38 6 c51 9 82 30 80 52 0 12 7 19 22 21 12 2 22
6 23 10 11 78 9 92 -21 107 -28 15 -41 35 -21 35 5 0 11 12 14 26 3 20 0 28
-14 31 -11 3 -19 11 -19 19 0 17 -20 29 -29 17 -3 -5 -14 -12 -23 -16 -14 -5
-18 -1 -18 19 0 24 -3 25 -42 22 -33 -2 -43 1 -43 12 0 10 8 14 25 12 14 -1
40 -4 59 -6 59 -6 70 1 69 47 0 23 -6 52 -14 64 -8 12 -14 29 -14 37 0 29 -17
25 -74 -18 -39 -29 -65 -42 -78 -38 -18 4 -16 6 10 17 34 15 50 35 28 35 -9 0
-16 5 -16 10 0 6 10 10 23 10 16 0 18 3 9 9 -11 6 -10 10 3 15 14 5 15 9 5 21
-7 8 -18 15 -25 15 -8 0 -15 3 -17 8 -4 10 -53 38 -118 69 -65 31 -82 42 -75
54 3 4 30 -1 60 -11 30 -10 55 -16 55 -13 0 4 6 0 13 -9 13 -17 122 -78 139
-78 5 0 8 7 5 15 -4 8 -2 17 3 20 16 10 12 25 -6 25 -22 0 -12 23 15 36 38 20
46 31 31 49 -11 13 -11 21 -2 36 14 22 8 39 -14 39 -8 0 -14 4 -14 8 0 4 -21
14 -47 22 -37 10 -43 14 -25 17 12 3 22 10 22 18 0 7 8 16 17 19 13 6 10 11
-19 31 -20 14 -38 30 -40 36 -2 6 -34 14 -70 18 -53 5 -71 12 -88 31 -12 14
-19 20 -16 15 2 -6 1 -17 -3 -24 -6 -9 -13 -5 -25 14 -17 26 -14 45 7 45 8 0
7 -3 -2 -9 -10 -7 -7 -9 11 -8 18 2 24 6 20 16 -4 10 -1 13 11 8 9 -3 17 -2
17 4 0 7 -12 8 -30 4 -24 -5 -30 -3 -30 10 0 12 5 15 16 11 20 -8 45 17 34 33
-6 11 -15 11 -44 0 -48 -17 -62 -34 -46 -54 6 -8 9 -23 6 -33 -5 -15 -16 -20
-46 -20 -36 -1 -40 2 -40 24 0 25 23 58 33 48 3 -3 8 5 12 18 4 13 14 31 23
41 21 24 10 31 -44 28 -45 -2 -88 -22 -110 -50 -8 -11 -13 -11 -18 -2 -5 7 -5
15 -2 18 3 3 1 12 -4 18 -8 9 -4 13 16 13 14 0 30 5 34 12 5 8 10 9 14 2 4 -7
18 -6 43 4 20 9 49 13 64 10 16 -3 31 -1 35 5 4 7 10 6 19 -1 11 -9 14 -6 17
12 2 17 9 22 26 20 17 -1 25 4 29 18 3 11 12 20 19 20 8 0 14 4 14 8 0 5 -40
8 -90 8 -65 -1 -90 -4 -90 -13 0 -7 -5 -13 -11 -13 -5 0 -8 4 -5 8 8 14 -63 0
-75 -14 -9 -11 -7 -14 12 -14 23 0 23 0 -6 -29 -31 -30 -105 -52 -105 -31 0 7
8 14 18 16 17 5 42 46 42 71 0 14 70 53 94 53 9 0 20 9 26 20 9 17 8 20 -14
20 -13 0 -26 -4 -28 -10 -2 -6 -14 -4 -30 4 -24 13 -30 13 -43 -1 -9 -9 -23
-12 -33 -8 -14 6 -13 9 11 21 32 17 36 28 7 19 -14 -5 -20 -2 -20 9 0 9 -3 15
-7 15 -27 -4 -33 2 -23 22 17 31 6 47 -15 21 -24 -27 -55 -29 -55 -3 0 11 -7
26 -15 35 -19 19 -19 32 0 40 8 3 15 1 15 -4 0 -5 7 -7 15 -4 14 6 15 32 6
103 -1 3 -7 -3 -13 -12 -9 -12 -34 -19 -82 -24 -68 -6 -68 -6 -55 15 8 12 17
22 21 22 5 0 8 4 8 9 0 14 -72 -17 -87 -37 -12 -14 -17 -10 -14 11 0 4 -11 7
-25 7 -19 0 -25 4 -20 15 6 18 -19 20 -57 6 -19 -8 -27 -6 -31 5 -8 21 -36 17
-36 -6 0 -15 -7 -20 -25 -20 -14 0 -25 6 -25 13 -1 6 -10 1 -20 -12 -23 -27
-47 -22 -52 11 l-3 23 -598 3 -598 2 28 -24 28 -25 -45 15 c-25 9 -49 20 -55
25 -5 5 -399 9 -992 9 l-982 0 -23 -22 c-13 -13 -34 -25 -48 -26 -13 -2 -29
-11 -36 -20 -6 -8 -16 -12 -22 -8 -6 3 -13 2 -17 -4 -4 -6 -10 -8 -15 -5 -4 3
-8 -1 -7 -8 1 -35 -4 -46 -18 -41 -8 4 -15 1 -15 -5 0 -6 -7 -11 -15 -11 -8 0
-15 -5 -15 -11 0 -5 -4 -8 -8 -5 -5 3 -15 -6 -22 -19 -7 -14 -20 -27 -29 -30
-9 -3 -29 -25 -44 -49 -41 -65 -95 -114 -157 -142 -61 -29 -116 -69 -173 -126
-21 -21 -45 -38 -53 -38 -9 0 -14 -6 -11 -13 7 -18 -44 -77 -68 -81 -13 -2
-19 -10 -17 -22 2 -17 1 -17 -10 -4 -18 20 -39 24 -32 5 4 -8 1 -15 -5 -15 -7
0 -14 7 -17 15 -4 9 -14 13 -23 11 -9 -3 -22 -1 -30 4 -10 6 -19 3 -28 -8 -8
-11 -15 -13 -20 -6 -9 11 -124 11 -143 -1 -6 -4 -18 1 -26 11 -14 18 -15 18
-9 -3 5 -17 2 -23 -9 -23 -9 0 -16 4 -16 9 0 6 -12 6 -29 1 -22 -6 -31 -5 -35
6 -7 17 -38 18 -54 2 -8 -8 -15 -8 -25 1 -12 9 -16 8 -21 -4 -7 -20 -24 -19
-28 2 -3 15 -4 15 -20 0 -12 -12 -19 -14 -24 -6 -3 6 -1 15 6 19 9 5 9 9 1 14
-6 4 -11 2 -11 -4 0 -7 -7 -9 -16 -6 -12 4 -14 1 -9 -14 4 -11 2 -20 -4 -20
-6 0 -11 5 -11 10 0 6 -4 10 -10 10 -5 0 -10 -7 -10 -15 0 -8 -5 -15 -11 -15
-5 0 -7 5 -3 12 5 7 3 8 -6 3 -7 -4 -16 -2 -22 6 -8 11 -9 10 -4 -3 7 -23 2
-23 -51 3 -46 22 -72 18 -39 -7 16 -11 17 -14 4 -14 -9 0 -18 6 -21 13 -3 8
-9 6 -19 -7 -13 -17 -15 -17 -21 -2 -8 20 -27 21 -27 1 0 -9 -6 -12 -15 -9 -8
3 -29 1 -46 -5 -24 -8 -36 -8 -47 2 -13 10 -14 9 -7 -2 6 -11 4 -13 -11 -7
-36 15 -57 19 -52 10 3 -5 -10 -10 -30 -11 -20 -1 -46 -4 -59 -8 -13 -3 -23
-1 -23 5 0 6 6 8 13 4 8 -6 8 -3 -2 9 -11 14 -12 79 -6 367 l8 350 -37 0 -36
0 0 -2010z m2440 -167 c0 -10 11 -28 25 -41 14 -14 22 -29 18 -39 -4 -11 -1
-14 13 -11 11 2 18 11 16 21 -2 9 2 17 8 17 6 0 9 -12 7 -27 -3 -23 -8 -28
-30 -25 -14 1 -28 -2 -32 -8 -4 -6 4 -10 19 -10 16 0 26 -6 26 -14 0 -10 7
-12 22 -8 14 3 19 2 14 -6 -4 -7 -14 -12 -22 -12 -8 0 -14 -7 -14 -15 0 -8 7
-15 16 -15 8 0 13 -4 10 -9 -3 -4 -17 -6 -32 -3 -23 4 -25 2 -20 -16 7 -21 -8
-39 -19 -22 -3 5 -1 10 5 10 6 0 8 5 5 10 -6 9 -42 5 -54 -6 -2 -2 4 -13 14
-24 9 -10 15 -26 12 -35 -8 -20 -25 -19 -29 1 -3 13 -6 12 -24 -4 -23 -21 -38
-17 -40 10 -1 12 6 16 27 16 34 -1 49 10 30 21 -7 5 -11 14 -7 20 5 7 1 8 -11
4 -16 -6 -16 -5 -4 10 12 15 12 19 -5 31 -18 14 -18 15 0 35 11 12 30 21 43
21 12 0 23 5 23 11 0 7 -12 10 -29 7 -43 -6 -59 27 -36 72 13 25 19 30 26 19
6 -11 9 -8 9 9 0 12 5 22 10 22 6 0 10 -8 10 -17z m-1687 -762 c26 -10 36 -38
20 -55 -4 -4 -13 -28 -19 -54 -12 -44 -11 -49 12 -83 21 -31 34 -38 82 -48 40
-8 69 -22 97 -46 22 -19 44 -35 50 -35 5 0 3 -5 -5 -10 -13 -8 -12 -10 2 -10
13 0 17 -6 14 -22 -2 -13 -9 -22 -15 -20 -6 1 -11 -2 -11 -7 0 -18 -46 -4
-101 31 -30 20 -66 39 -80 43 -13 4 -30 12 -36 17 -7 6 -22 8 -33 5 -11 -3
-20 0 -20 6 0 7 -5 4 -11 -5 -8 -14 -15 -15 -35 -8 -14 6 -30 10 -35 10 -12 0
-1 -42 13 -51 12 -8 -21 -121 -39 -132 -7 -4 -13 -15 -13 -23 0 -9 -10 -30
-22 -47 -13 -18 -23 -34 -24 -37 -7 -39 -52 -100 -74 -100 -30 0 -35 -21 -11
-41 16 -13 21 -24 16 -40 -5 -16 -4 -19 6 -14 9 6 10 3 5 -10 -4 -11 -2 -22 6
-26 10 -7 11 -12 1 -29 -16 -24 -17 -90 -3 -90 6 0 8 -10 4 -24 -5 -20 -1 -26
23 -34 23 -8 24 -11 7 -11 -22 -1 -29 -30 -11 -42 5 -4 0 -10 -12 -14 -37 -11
-54 12 -47 65 7 50 0 66 -19 50 -9 -8 -14 -6 -19 5 -9 24 -24 18 -63 -25 -42
-45 -53 -49 -53 -20 0 13 -7 20 -18 20 -10 0 -22 3 -26 7 -15 15 -33 11 -29
-7 3 -10 -2 -20 -11 -23 -10 -4 -13 -1 -9 9 3 9 -1 14 -12 14 -17 0 -17 1 -1
19 9 10 18 31 19 47 2 25 -2 29 -23 29 -17 0 -24 5 -22 15 3 12 1 13 -10 2
-10 -10 -10 -16 0 -33 8 -12 10 -19 5 -16 -5 3 -16 -8 -25 -23 -16 -28 -16
-29 4 -36 16 -5 18 -8 7 -15 -8 -4 -19 -3 -26 3 -17 14 -16 7 2 -28 9 -19 11
-32 5 -38 -6 -6 -10 -18 -10 -27 0 -16 -3 -16 -40 -2 -22 9 -40 22 -40 30 0 7
-7 13 -15 13 -21 0 -19 30 3 31 15 1 14 2 -2 6 -19 5 -19 18 -12 481 4 262 9
478 11 480 4 4 36 6 305 17 233 9 281 12 285 17 8 8 109 0 138 -11z m2481
-736 c3 -8 12 -15 20 -15 20 0 46 -39 46 -69 0 -14 -10 -35 -22 -48 l-21 -23
24 0 c13 0 33 -7 43 -15 31 -23 7 -37 -67 -40 -36 -2 -69 -5 -74 -7 -11 -6
-130 -2 -218 6 -46 4 -80 14 -98 27 -15 11 -32 17 -37 14 -15 -10 -54 15 -42
27 12 12 82 -8 94 -26 6 -8 8 -8 8 0 0 7 29 13 73 16 88 6 144 33 189 91 18
23 36 44 40 45 5 2 8 10 8 18 0 19 26 18 34 -1z m-1068 -130 c19 -25 34 -35
54 -35 16 0 30 -7 34 -15 3 -9 18 -15 35 -15 20 0 34 -8 45 -25 10 -14 42 -42
72 -61 33 -21 52 -39 48 -46 -5 -7 -2 -9 8 -6 9 4 30 -5 49 -21 49 -38 79 -51
118 -48 23 2 42 -3 60 -19 16 -13 58 -28 111 -39 46 -9 93 -23 104 -30 20 -13
51 -13 122 0 21 4 35 0 44 -10 7 -8 19 -15 26 -15 8 0 14 -7 14 -15 0 -11 12
-15 43 -16 23 -1 48 -1 56 0 7 2 10 -2 7 -8 -11 -17 14 -24 32 -8 9 8 31 19
48 25 29 9 33 8 42 -13 9 -20 8 -24 -6 -27 -12 -2 -13 -6 -5 -11 6 -4 18 0 26
8 9 8 20 15 26 15 6 0 11 5 11 11 0 6 -9 8 -20 4 -12 -4 -20 -2 -20 5 0 6 4 9
9 6 5 -4 11 -1 13 6 3 9 10 8 26 -4 12 -8 19 -18 15 -22 -11 -11 -14 -46 -4
-46 6 0 12 4 16 10 3 5 12 7 20 4 15 -6 12 -36 -10 -102 -9 -24 -10 -39 -3
-43 7 -4 6 -13 -1 -27 -6 -11 -11 -30 -11 -41 0 -11 -10 -27 -21 -35 -15 -10
-20 -21 -16 -35 3 -13 -1 -24 -11 -30 -21 -12 -18 -142 4 -154 17 -10 19 -34
3 -39 -8 -3 -4 -24 12 -67 20 -57 21 -69 11 -118 -6 -29 -9 -60 -5 -68 3 -9 0
-22 -7 -29 -8 -11 -8 -20 -1 -34 8 -15 7 -23 -3 -31 -10 -8 -16 -9 -21 -1 -8
14 -55 2 -79 -20 -10 -10 -20 -38 -23 -64 -5 -36 -9 -46 -24 -46 -11 0 -19 6
-19 13 0 19 -35 14 -59 -7 -11 -10 -27 -16 -34 -13 -8 3 -19 1 -24 -4 -20 -20
-134 -12 -141 10 -3 9 2 11 17 6 12 -4 21 -2 21 4 0 15 -17 14 -70 -5 -30 -10
-46 -12 -48 -5 -5 16 -22 13 -22 -3 0 -19 -26 -40 -35 -26 -3 5 0 10 7 10 10
0 9 3 -1 9 -12 8 -12 12 -2 24 7 10 8 18 2 21 -5 4 -12 2 -16 -4 -3 -5 -14
-10 -24 -10 -10 0 -24 -7 -31 -15 -10 -12 -10 -15 4 -15 19 0 21 -11 5 -27
-16 -16 -39 -5 -39 18 0 23 -48 49 -89 49 -48 0 -50 -31 -2 -34 29 -2 62 -32
55 -50 -6 -15 -2 -17 32 -12 22 3 33 3 27 0 -7 -3 -13 -12 -13 -19 0 -7 -7
-15 -15 -19 -9 -3 -15 0 -15 9 0 8 -7 15 -15 15 -8 0 -15 9 -15 20 0 11 -4 20
-10 20 -5 0 -10 -7 -10 -16 0 -10 -6 -14 -14 -11 -20 8 -28 -4 -15 -20 9 -10
7 -13 -7 -14 -18 0 -18 -1 1 -9 11 -5 14 -9 8 -9 -18 -1 -16 -21 2 -21 8 0 15
-4 15 -10 0 -5 -5 -10 -12 -10 -9 0 -9 -3 0 -12 15 -15 16 -28 2 -28 -5 0 -12
11 -16 25 -8 34 -32 52 -40 31 -15 -39 -70 6 -66 55 1 18 -3 29 -10 29 -10 0
-10 2 0 9 7 4 14 15 16 23 1 9 6 22 12 29 8 13 9 20 5 54 0 5 -8 -1 -17 -13
l-15 -22 -22 21 c-15 13 -29 18 -45 14 -14 -3 -29 0 -39 10 -8 9 -22 14 -29
11 -8 -3 -14 -1 -14 4 0 10 27 14 63 11 20 -3 22 10 5 27 -9 9 -8 12 5 12 9 0
17 4 17 9 0 11 -25 21 -53 21 -18 0 -19 -2 -7 -11 13 -9 13 -10 0 -6 -8 2 -15
13 -14 24 0 14 -10 24 -33 32 -18 7 -33 17 -33 23 0 5 -6 8 -14 5 -8 -3 -21 4
-29 16 -29 43 -52 63 -70 59 -10 -2 -17 0 -16 5 3 20 -2 27 -11 13 -6 -10 -10
-11 -10 -2 0 6 -9 12 -20 12 -24 0 -27 15 -4 24 8 3 12 11 9 16 -4 6 -1 17 5
25 10 12 8 15 -12 15 -13 0 -30 9 -38 20 -8 11 -18 20 -23 20 -5 0 -4 -7 3
-15 20 -24 6 -27 -23 -5 -14 11 -33 20 -44 20 -11 0 -14 3 -7 8 28 19 23 48
-8 43 -5 0 -8 19 -8 43 0 31 -5 46 -16 50 -8 3 -12 10 -9 16 3 5 -2 10 -12 11
-13 1 -11 3 7 9 14 4 20 8 13 9 -7 1 -15 16 -19 35 -4 25 -11 34 -23 31 -23
-4 -23 36 1 53 10 7 18 19 17 25 0 9 -2 9 -6 0 -2 -7 -9 -13 -14 -13 -15 0
-28 43 -18 56 7 8 1 14 -17 18 -20 5 -24 10 -15 19 17 17 13 27 -9 27 -12 0
-20 7 -20 16 0 9 -8 23 -17 30 -17 13 -17 13 0 14 9 0 17 6 17 14 0 14 -47 78
-62 84 -17 8 -7 24 12 19 11 -3 20 -1 20 4 0 5 -11 11 -24 15 -26 6 -49 45
-39 69 3 9 -2 22 -13 30 -18 14 -18 16 9 19 6 1 12 14 12 29 -1 16 5 27 12 27
15 0 17 16 3 25 -6 4 -7 11 -4 17 4 6 2 13 -3 17 -13 8 -27 52 -16 50 4 -1 15
-1 23 0 13 1 13 3 -1 14 -10 8 -13 20 -9 37 l6 25 12 -22 c7 -13 20 -23 30
-22 15 0 15 1 -1 8 -18 6 -18 8 -2 21 9 8 30 13 45 12 16 -1 31 2 35 8 10 17
25 11 25 -10 0 -12 -5 -17 -13 -14 -10 4 -14 -6 -14 -36 0 -32 4 -40 18 -40
12 0 16 5 13 15 -5 11 1 15 25 15 17 0 31 5 31 10 0 10 -15 14 -35 10 -6 -1
-5 4 1 10 9 9 17 8 32 -1 26 -16 44 -2 20 15 -15 11 -15 13 4 25 17 10 23 10
38 -4 10 -9 24 -14 29 -10 6 3 11 0 11 -7 0 -7 9 2 20 20 11 17 24 32 29 32 6
0 22 -16 37 -35z m-1121 -362 c-2 -10 -4 -21 -4 -24 -1 -3 -10 -16 -21 -29
-17 -19 -20 -36 -18 -87 1 -46 6 -63 16 -63 16 0 87 -37 114 -60 10 -8 18 -24
18 -36 0 -17 -8 -23 -37 -30 -21 -4 -44 -8 -50 -8 -7 -1 -13 -4 -13 -8 0 -5 0
-11 0 -15 0 -5 21 -17 48 -27 26 -11 50 -24 54 -30 9 -14 -31 -56 -54 -56 -21
0 -104 19 -133 30 -89 35 -99 43 -72 54 9 3 7 9 -5 19 -10 8 -18 22 -18 31 0
9 -8 16 -18 16 -24 0 -90 81 -94 115 -3 23 2 29 27 37 96 30 125 55 139 124 8
34 27 45 118 63 3 0 5 -7 3 -16z m-400 -244 c15 -22 38 -54 53 -70 15 -16 38
-43 52 -59 13 -17 28 -30 33 -30 4 0 24 -12 43 -27 29 -22 37 -24 45 -12 6 10
9 4 10 -21 1 -19 3 -39 4 -45 4 -16 5 -25 4 -31 -1 -3 17 -25 39 -48 22 -22
46 -58 53 -78 14 -40 37 -57 51 -36 6 10 8 9 8 -4 0 -12 6 -15 23 -10 27 7 42
21 51 49 10 32 76 41 76 10 0 -15 -61 -67 -71 -61 -5 3 -9 -6 -9 -19 0 -14 -6
-27 -14 -30 -8 -3 -20 -24 -27 -46 -7 -23 -18 -41 -25 -41 -7 0 -24 -11 -38
-24 -23 -21 -34 -23 -97 -20 -38 2 -76 7 -82 11 -7 4 -21 9 -31 10 -24 4 -47
23 -41 33 3 4 -2 13 -10 20 -8 7 -15 20 -15 29 0 9 -6 25 -14 36 -10 14 -12
33 -6 68 4 26 4 50 0 52 -4 3 -5 16 -2 31 2 14 1 29 -4 33 -13 9 -34 59 -34
80 0 10 -7 32 -15 47 -8 16 -15 36 -15 44 0 8 -9 29 -20 45 -26 39 -28 155 -3
155 1 0 14 -18 28 -41z m3506 -1020 c-32 -52 -33 -50 21 -53 9 -1 20 -4 24 -8
4 -5 17 -8 28 -8 19 -1 19 -2 -4 -15 l-25 -14 25 -2 c14 -1 33 -2 43 -1 9 1
17 -3 17 -8 0 -6 -8 -10 -18 -10 -10 0 -23 -5 -30 -12 -9 -9 -15 -9 -24 0 -18
18 -45 14 -61 -8 -15 -22 -27 -17 -27 12 0 27 -17 22 -24 -7 -9 -34 -26 -32
-26 3 0 34 -10 49 -35 53 -15 3 -21 13 -23 40 -3 34 -1 37 30 44 18 4 42 7 53
6 11 -1 34 11 50 26 41 38 44 22 6 -38z m-1567 -94 c-5 -11 1 -15 20 -15 19 0
26 -5 26 -19 0 -11 3 -28 6 -38 6 -15 4 -16 -7 -5 -7 6 -22 11 -33 11 -18 -1
-18 -2 -3 -6 14 -4 16 -8 6 -19 -7 -8 -9 -27 -5 -49 5 -27 12 -35 28 -35 l21
0 -21 -19 c-27 -23 -28 -43 -2 -59 17 -10 18 -15 8 -31 -7 -11 -16 -17 -20
-15 -5 3 -11 -2 -14 -10 -7 -18 -34 -22 -34 -6 0 6 5 10 12 10 7 0 5 7 -5 18
-15 17 -16 50 -3 112 7 30 -13 45 -31 22 -10 -14 -12 -14 -13 -2 0 11 -3 11
-12 2 -15 -15 -32 -16 -22 -1 4 8 0 9 -15 4 -13 -4 -27 -1 -37 10 -19 18 -11
33 9 17 7 -6 20 -10 29 -8 18 2 48 24 46 34 -4 32 4 62 17 62 8 0 15 6 15 13
0 14 19 37 32 37 4 0 5 -7 2 -15z"/>
<path d="M3150 5807 c0 -9 5 -19 10 -22 13 -8 3 -25 -15 -25 -7 0 -15 10 -17
22 l-3 23 -22 -24 c-12 -13 -19 -29 -16 -35 4 -7 8 -6 11 2 6 20 25 13 65 -23
35 -33 49 -54 27 -40 -5 3 -10 1 -10 -4 0 -6 9 -11 20 -11 11 0 20 5 20 11 0
7 10 9 26 5 15 -4 23 -3 20 3 -3 5 0 11 8 14 9 4 16 -3 20 -18 4 -17 14 -25
34 -27 22 -2 27 -8 27 -30 -1 -14 3 -24 7 -22 4 3 8 13 8 22 0 12 3 13 12 4
19 -19 33 -14 15 6 -10 11 -14 26 -10 40 4 16 0 27 -13 37 -18 14 -18 14 -1
15 10 0 15 5 12 10 -4 6 -10 8 -15 5 -5 -3 -11 -1 -15 5 -3 5 -15 10 -26 10
-10 0 -19 7 -19 15 0 16 -21 29 -60 38 -20 5 -28 1 -35 -15 -12 -26 -35 -36
-35 -15 0 8 -7 20 -15 27 -12 10 -15 10 -15 -3z"/>
<path d="M4805 4688 c-17 -10 -39 -22 -50 -27 -12 -5 -26 -15 -33 -23 -6 -8
-22 -14 -34 -12 -13 1 -27 3 -31 3 -5 1 -6 5 -3 9 9 14 -25 10 -63 -9 -24 -11
-41 -14 -53 -8 -24 13 -25 12 -37 -21 -6 -18 -21 -34 -36 -40 -28 -11 -49 -5
-40 11 8 12 -23 12 -38 -1 -7 -6 -20 -16 -29 -23 -9 -7 -20 -25 -24 -41 -6
-25 -4 -28 10 -23 13 5 16 0 16 -23 0 -17 4 -30 10 -30 5 0 16 -16 26 -35 14
-30 15 -46 5 -116 -8 -57 -8 -86 0 -95 7 -9 6 -13 -5 -16 -13 -3 -13 -7 1 -35
11 -24 22 -33 40 -33 13 0 22 -4 19 -9 -3 -4 6 -6 19 -3 14 2 25 8 25 13 0 5
9 9 20 9 25 0 25 -8 0 -40 -20 -25 -27 -70 -12 -70 5 0 15 -16 23 -37 8 -20
28 -45 44 -55 21 -12 25 -18 13 -18 -10 0 -18 -7 -18 -16 0 -20 30 -46 98 -85
28 -17 52 -34 52 -38 0 -4 21 -13 48 -20 26 -8 58 -20 72 -26 14 -7 59 -15
101 -18 42 -3 88 -9 103 -13 20 -5 26 -3 24 7 -2 11 8 13 44 11 111 -8 120 32
14 64 -16 5 -28 14 -25 19 4 11 25 11 74 0 43 -9 11 12 -39 26 -21 6 -47 19
-59 29 -13 13 -25 16 -35 11 -16 -9 -72 8 -72 22 0 5 18 7 40 3 24 -4 69 0
112 10 84 19 78 25 -48 44 -43 7 -83 16 -88 21 -5 5 -15 4 -23 -2 -9 -9 -17
-8 -28 1 -8 7 -15 10 -15 6 0 -4 -15 1 -32 10 -18 10 -62 18 -97 20 -59 3 -93
15 -79 29 3 3 36 8 74 11 48 4 73 11 82 22 12 16 15 15 36 -9 37 -43 144 -52
220 -19 36 15 50 29 71 69 30 61 30 59 3 63 -27 4 -39 48 -14 48 9 0 16 -5 16
-11 0 -6 7 -8 15 -5 41 15 185 -48 185 -81 0 -31 -33 -74 -71 -94 -23 -11 -39
-22 -37 -25 8 -7 71 17 93 36 11 9 32 24 46 33 25 15 29 15 63 -4 20 -10 52
-19 72 -19 l36 0 -23 38 c-31 50 -42 60 -75 68 -16 4 -72 29 -124 55 -86 45
-289 107 -308 95 -4 -2 -18 0 -31 5 -40 15 -11 30 60 31 122 1 303 -38 369
-79 14 -9 46 -34 72 -56 45 -37 113 -63 123 -47 12 20 -125 147 -164 153 -12
2 -30 10 -39 18 -25 21 -80 42 -95 36 -7 -3 -21 1 -32 9 -10 8 -31 14 -47 14
-15 0 -28 5 -28 10 0 6 -6 10 -14 10 -8 0 -17 7 -20 15 -4 11 3 17 24 22 17 3
30 9 30 14 0 5 12 15 28 23 15 8 21 15 15 16 -7 0 -13 10 -13 21 0 15 4 19 13
13 6 -5 19 -9 27 -8 8 1 25 2 38 3 33 2 27 20 -19 63 -29 27 -47 37 -60 33
-11 -4 -19 -2 -19 4 0 5 8 11 18 13 11 2 2 11 -30 27 -42 20 -51 21 -82 10
-28 -10 -43 -10 -76 0 -22 6 -45 9 -51 5 -6 -4 -15 -1 -19 5 -7 12 -131 19
-174 10 -13 -3 -24 4 -30 17 -11 20 -12 20 -41 2z"/>
<path d="M6280 4248 c-14 -11 -34 -26 -44 -34 -17 -12 -20 -29 -23 -136 -2
-68 -9 -133 -15 -145 -6 -12 -8 -36 -6 -55 3 -18 2 -43 -3 -55 -5 -14 -5 -23
1 -23 6 0 10 -14 10 -31 0 -29 -2 -31 -29 -26 -29 6 -29 5 -30 -41 0 -26 -2
-60 -3 -76 -2 -18 3 -32 13 -39 24 -15 49 13 49 57 0 20 4 36 8 36 5 0 15 26
21 58 7 31 16 64 19 72 3 8 6 17 7 20 0 3 11 20 22 39 24 38 33 90 39 226 2
50 5 108 6 129 4 46 -8 53 -42 24z"/>
<path d="M7965 4026 c-20 -20 -22 -28 -15 -62 5 -22 11 -73 14 -114 4 -41 11
-114 18 -162 9 -67 9 -230 -1 -710 -7 -343 -15 -625 -17 -627 -2 -2 -4 9 -4
25 -1 16 -3 58 -6 94 -2 36 -7 97 -9 135 -2 39 -11 95 -20 125 -9 30 -19 80
-22 110 -3 30 -9 63 -14 72 -5 9 -6 23 -3 32 3 8 -4 51 -15 95 -12 44 -21 96
-21 115 0 19 -4 37 -9 40 -4 3 -11 31 -15 63 -6 60 -36 201 -61 286 -7 27 -11
55 -8 63 3 8 1 20 -4 27 -16 20 -46 108 -39 114 3 4 -1 17 -10 30 -8 13 -14
32 -13 41 1 9 -3 30 -10 47 -22 52 -45 100 -51 105 -4 3 -10 12 -13 20 -4 8
-4 -3 -1 -25 3 -22 7 -83 9 -135 2 -52 7 -113 11 -135 3 -22 8 -53 9 -68 19
-193 37 -352 46 -393 5 -27 9 -63 9 -80 0 -35 15 -184 29 -276 5 -37 8 -80 6
-95 -2 -15 1 -33 5 -38 5 -6 9 -38 10 -70 4 -293 14 -583 24 -727 7 -95 9
-195 7 -426 -1 -90 1 -168 5 -173 3 -5 7 -119 10 -252 2 -133 6 -253 9 -267
11 -52 14 -146 6 -159 -9 -14 -101 -33 -101 -21 0 9 -36 23 -62 24 -9 1 -27
13 -39 26 -16 18 -20 20 -16 7 6 -16 2 -18 -31 -15 -54 4 -54 31 -1 48 23 8
37 16 32 17 -7 3 -8 17 -3 37 7 32 -6 66 -26 66 -5 0 -14 11 -20 24 -12 26
-15 24 51 46 19 6 19 7 -2 14 -13 4 -23 14 -23 22 0 17 -17 19 -22 2 -2 -6
-10 -8 -17 -4 -9 6 -9 11 -1 21 6 8 9 27 7 44 -3 17 -1 34 4 37 6 4 6 11 -1
19 -7 8 -9 24 -5 36 5 13 2 25 -6 30 -11 6 -10 12 5 27 13 15 14 21 4 25 -10
4 -10 6 0 6 17 1 15 28 -3 35 -8 3 -15 13 -15 23 0 14 -2 15 -9 4 -5 -7 -14
-10 -20 -7 -16 10 -14 26 4 26 8 0 15 7 15 15 0 8 -5 15 -10 15 -6 0 -8 11 -4
25 3 14 3 37 0 51 -6 24 -8 25 -20 9 -12 -17 -13 -17 -20 0 -4 13 -1 22 10 28
13 7 14 11 3 17 -10 7 -10 11 0 23 10 13 9 17 -6 26 -14 8 -14 10 -3 11 15 0
15 7 7 125 -1 19 -8 31 -19 33 -16 3 -16 5 3 25 11 12 15 23 9 25 -5 2 -10 9
-10 15 0 7 -9 18 -21 25 -16 11 -18 16 -9 28 10 11 9 14 -3 14 -19 0 -29 37
-11 44 8 3 14 11 14 18 0 9 -3 9 -12 0 -16 -16 -28 -15 -28 2 0 8 10 22 22 30
18 13 19 16 5 16 -21 0 -22 23 -3 39 10 9 13 24 9 49 -7 47 -10 50 -58 57 -22
3 -53 11 -68 17 -17 7 -32 7 -35 2 -9 -11 -42 -15 -42 -4 0 4 -12 6 -27 4 -16
-2 -22 -1 -15 2 13 6 17 26 5 22 -8 -3 -13 5 -13 22 0 19 38 10 43 -10 3 -11
11 -20 17 -20 7 0 10 6 7 14 -6 15 33 31 68 27 18 -2 18 0 -4 18 l-25 19 26
-5 c15 -3 28 -13 31 -24 7 -26 24 -24 29 4 8 45 -1 57 -42 57 -21 0 -41 4 -45
9 -3 6 -16 4 -31 -4 -19 -9 -36 -10 -67 -3 -44 11 -65 12 -107 10 l-25 -2 30
-26 c29 -25 30 -25 5 -20 -14 3 -31 6 -39 6 -10 0 -12 8 -7 30 4 22 2 30 -9
30 -8 0 -15 -7 -15 -15 0 -10 -10 -15 -29 -15 -17 0 -33 -4 -36 -10 -10 -15
-35 -12 -35 5 0 8 -4 15 -10 15 -5 0 -10 -7 -10 -16 0 -8 -5 -12 -10 -9 -6 4
-16 2 -23 -3 -17 -14 -67 -3 -67 15 0 8 5 11 10 8 6 -3 10 -2 10 4 0 5 -13 9
-30 9 -25 -1 -30 -5 -32 -27 0 -14 -2 -30 -3 -36 -2 -5 -3 -15 -4 -21 0 -7
-12 -14 -26 -16 -19 -4 -25 -1 -25 13 0 28 -22 23 -49 -11 -14 -18 -33 -30
-47 -30 -28 0 -31 17 -6 36 16 13 16 13 0 14 -10 0 -18 -4 -18 -10 0 -17 -19
-11 -30 9 -9 18 -6 19 55 16 40 -3 65 0 65 6 0 6 4 8 10 4 14 -9 50 18 50 37
0 14 -8 18 -36 18 -24 0 -33 4 -28 12 5 8 2 9 -9 5 -42 -17 -52 -20 -45 -12 4
4 3 16 -2 26 -8 13 -6 20 7 28 16 9 16 10 2 11 -21 0 -53 46 -39 55 6 3 10 0
10 -8 0 -17 37 -30 46 -16 3 5 0 9 -6 9 -6 0 -9 4 -5 9 6 10 -33 37 -47 33 -4
-1 -5 5 -2 13 3 8 -6 25 -20 39 -19 17 -23 26 -14 29 7 3 1 6 -14 6 -22 1 -26
-2 -21 -16 6 -16 5 -16 -10 -4 -9 7 -23 11 -31 8 -7 -3 -19 0 -25 6 -8 8 -11
8 -11 -2 0 -7 -5 -9 -12 -5 -8 5 -9 2 -5 -9 7 -18 -17 -24 -28 -7 -3 5 -15 6
-29 0 -12 -4 -29 -4 -36 0 -8 5 -18 6 -22 4 -4 -3 -4 5 1 18 4 13 16 25 26 27
13 2 16 -1 12 -13 -9 -22 10 -20 22 2 11 21 -9 68 -27 64 -16 -3 -15 11 1 27
10 11 8 11 -10 2 -29 -15 -33 -14 -33 4 0 9 6 18 14 21 8 3 12 12 9 20 -4 12
0 14 23 8 16 -4 34 -11 40 -15 14 -11 34 10 34 36 0 12 -9 30 -21 41 -20 18
-22 18 -86 -5 -50 -18 -67 -21 -73 -11 -14 23 -22 -9 -16 -63 3 -29 3 -46 0
-39 -8 18 -24 15 -24 -6 0 -16 -21 -32 -62 -48 -10 -3 -18 -10 -18 -15 0 -5
-8 -9 -17 -9 -15 0 -16 -2 -3 -10 13 -9 13 -11 0 -20 -19 -13 -30 -13 -30 0 0
6 -11 10 -24 10 -31 0 -51 -42 -71 -146 -20 -104 -50 -211 -99 -354 -29 -82
-130 -293 -156 -325 -9 -11 -32 -45 -50 -75 -18 -30 -39 -59 -46 -63 -8 -4
-14 -13 -14 -19 0 -13 -83 -119 -150 -191 -28 -30 -63 -70 -78 -90 -15 -20
-37 -41 -49 -48 -12 -6 -24 -17 -26 -23 -3 -6 4 -83 14 -171 18 -154 24 -381
14 -502 -14 -168 -25 -334 -25 -390 l0 -63 113 1 c61 0 104 3 95 7 -12 5 -14
12 -9 21 5 7 14 11 20 7 7 -5 10 6 8 32 -1 27 -6 38 -14 35 -14 -6 -16 9 -7
45 4 14 12 21 20 18 8 -3 14 -1 14 4 0 6 -4 10 -9 10 -5 0 -12 12 -16 27 -4
19 -2 29 10 36 13 7 14 12 4 23 -9 11 -7 14 10 14 11 0 21 5 21 11 0 5 -4 8
-8 5 -4 -2 -14 0 -22 5 -11 8 -12 12 -3 16 18 7 -9 33 -34 33 -14 1 -10 7 16
30 23 20 37 26 42 19 10 -16 29 -1 22 16 -4 11 1 14 18 13 15 -2 24 2 24 11 0
26 -22 22 -56 -9 -37 -34 -52 -38 -42 -14 5 14 2 16 -22 10 -23 -6 -26 -5 -18
6 6 7 10 28 8 46 -1 25 2 32 17 32 13 0 18 -8 18 -30 0 -16 5 -30 11 -30 6 0
9 7 6 14 -4 10 -1 13 9 9 7 -3 14 -3 14 -1 0 9 -35 44 -59 61 -30 20 -36 52
-16 84 17 25 13 28 -14 13 -16 -8 -17 -6 -13 18 2 15 10 33 16 41 9 12 8 13
-6 8 -13 -5 -16 -1 -13 21 1 15 3 33 4 40 0 6 8 12 17 12 13 0 14 -3 5 -14 -9
-11 -4 -17 23 -30 45 -21 44 -21 39 19 -2 20 1 35 7 35 5 0 10 8 10 17 0 13 3
14 12 5 21 -21 32 -13 13 8 -18 20 -18 21 -1 38 17 16 17 16 14 -7 -2 -14 3
-26 11 -29 8 -3 11 0 7 7 -5 7 -1 9 9 5 11 -5 15 -14 11 -30 -3 -12 -2 -26 4
-29 5 -3 10 3 10 15 0 19 2 20 15 6 8 -8 15 -19 15 -25 0 -5 8 -12 18 -15 27
-9 46 -45 31 -62 -7 -8 -7 -14 -1 -14 5 0 12 -9 15 -20 4 -17 2 -18 -14 -9
-10 5 -19 6 -19 2 0 -4 -7 2 -15 14 -8 12 -12 29 -9 38 7 17 -29 59 -40 47 -4
-3 -11 0 -16 8 -7 11 -10 7 -16 -14 -5 -21 -1 -33 17 -52 12 -13 28 -24 36
-24 17 0 17 -27 1 -34 -9 -3 -5 -11 11 -26 13 -11 21 -23 18 -27 -4 -3 0 -11
9 -17 9 -7 16 -27 17 -46 1 -19 5 -38 10 -41 4 -3 10 -22 12 -41 4 -32 2 -35
-15 -31 -29 8 -26 -23 3 -32 22 -8 22 -8 -3 -12 -26 -5 -60 -30 -60 -45 0 -14
28 -9 34 7 4 11 13 14 33 9 38 -9 38 -10 14 -35 -16 -17 -21 -19 -21 -8 0 9
-7 16 -15 16 -9 0 -14 -6 -11 -13 3 -8 -4 -8 -24 3 -24 11 -32 12 -49 1 -27
-17 -27 -35 0 -34 14 1 23 -6 25 -17 3 -24 23 -47 40 -47 8 0 14 -4 14 -10 0
-5 -5 -10 -11 -10 -5 0 -7 -5 -4 -11 9 -14 45 19 39 35 -5 14 10 29 39 39 15
6 18 2 15 -16 -2 -15 2 -22 14 -22 24 0 29 -8 32 -56 2 -24 4 -54 4 -66 1 -13
5 -22 10 -22 21 4 32 -3 32 -20 0 -11 9 -21 23 -25 12 -3 493 -6 1070 -6
l1047 0 0 2025 c0 1114 -2 2025 -5 2025 -3 0 -17 -11 -30 -24z"/>
<path d="M4415 3061 c-46 -22 -80 -55 -71 -69 3 -5 18 -13 33 -17 15 -3 48
-22 74 -41 39 -28 52 -33 80 -28 117 23 151 111 56 149 -66 26 -126 28 -172 6z"/>
</g>
</svg>
